<?xml version="1.0" encoding="UTF-8"?>
<svg id="NEW" xmlns="http://www.w3.org/2000/svg" viewBox="0 0 70 70">
  <defs>
    <style>
      .cls-1 {
        fill: #20292d;
      }

      .cls-2 {
        fill: #a3d0d8;
      }
    </style>
  </defs>
  <circle class="cls-1" cx="35" cy="35" r="35"/>
  <path class="cls-2" d="M43.53,50.57c.77-.41,1.77-.34,2.47.19,4.6,3.46,7.67,3.81,8.12,3.36.45-.45.1-3.51-3.36-8.12-.54-.71-.61-1.69-.19-2.47,1.33-2.48,1.39-4.4.77-5.02-.62-.62-2.55-.56-5.02.77-.79.42-1.76.35-2.47-.19-2.5-1.87-4.39-2.73-5.53-3.12-.42-.14-.7-.53-.7-.97s.28-.83.7-.97c1.15-.39,3.04-1.24,5.53-3.11.71-.54,1.69-.61,2.47-.19,2.48,1.33,4.4,1.39,5.02.77.62-.62.56-2.55-.77-5.02-.42-.79-.35-1.76.19-2.47,3.46-4.61,3.81-7.68,3.36-8.12-.44-.45-3.51-.1-8.12,3.36-.72.54-1.69.61-2.47.19-1.38-.74-2.71-1.15-3.75-1.15-.41,0-.96.07-1.27.38-.62.62-.56,2.55.77,5.02.42.79.35,1.76-.19,2.47-1.87,2.49-2.73,4.39-3.11,5.53-.14.42-.53.7-.97.7s-.83-.28-.97-.7c-.39-1.15-1.24-3.04-3.12-5.53-.54-.71-.61-1.69-.19-2.47,1.33-2.48,1.39-4.4.77-5.02-.62-.62-2.55-.56-5.02.77-.79.42-1.76.35-2.47-.19-4.61-3.46-7.67-3.81-8.12-3.36-.45.45-.1,3.51,3.36,8.12.54.72.61,1.69.19,2.47-1.33,2.48-1.39,4.4-.77,5.02.62.62,2.55.56,5.02-.77.77-.41,1.77-.34,2.47.19,2.49,1.87,4.39,2.73,5.53,3.11.42.14.7.53.7.97s-.28.83-.7.97c-1.15.39-3.04,1.24-5.53,3.12-.71.54-1.69.61-2.47.19-1.38-.74-2.71-1.15-3.75-1.15-.41,0-.96.07-1.27.38-.62.62-.56,2.55.77,5.02.42.79.35,1.76-.19,2.47-3.46,4.61-3.81,7.68-3.36,8.12.45.45,3.51.1,8.12-3.36.72-.54,1.69-.61,2.47-.19,2.48,1.33,4.4,1.39,5.02.77.62-.62.56-2.55-.77-5.02-.42-.79-.35-1.76.19-2.47,1.87-2.49,2.73-4.39,3.12-5.53.14-.42.53-.7.97-.7s.83.28.97.7c.39,1.15,1.24,3.04,3.12,5.53.54.71.61,1.69.19,2.47-1.33,2.48-1.39,4.4-.77,5.02s2.55.56,5.02-.77Z"/>
</svg>