<?xml version="1.0" encoding="UTF-8"?>
<svg id="NEW" xmlns="http://www.w3.org/2000/svg" viewBox="0 0 89 10">
  <defs>
    <style>
      .cls-1 {
        fill: #fff;
      }
    </style>
  </defs>
  <path class="cls-1" d="M2.86,6.93l-.03,2.39s.01.53-.12.6c-.27.16-1.93.03-2.18-.06-.11-.04-.11-.58-.11-.58,0,0,.1-6.19.12-8.25,0-.16,0-.62.09-.65.2-.04.41-.05.62-.04,1.18,0,4.58-.14,5.48,1.66,1.2,2.39-.95,5.16-3.86,4.93ZM2.92,2.75l-.02,1.77c.54.01,1.54.05,1.78-.57.45-1.15-.98-1.23-1.75-1.2Z"/>
  <path class="cls-1" d="M14.22,9.88c-2.07.48-4.5-.6-5.33-2.6-.9-2.21-.37-5.23,1.76-6.54,2.85-1.71,6.56-.34,7.02,3.11.53,2.64-.67,5.4-3.45,6.03ZM13.26,2.42c-.83,0-1.71.39-2.06,1.17-.51,1.17-.52,2.97.75,3.65,1.38.82,3.24.06,3.39-1.59.17-1.48-.24-3.31-2.07-3.23Z"/>
  <path class="cls-1" d="M31.2,1.25c-.74,2.69-1.49,5.43-2.24,8.12,0,0-.15.58-.28.56-.46.06-1.61.05-2.13-.03-.12,0-.27-.53-.27-.53-.43-1.52-.88-3.12-1.31-4.63-.43,1.52-.89,3.11-1.32,4.63,0,0-.16.58-.28.56-.38.09-1.61.08-2.13-.03-.12,0-.27-.53-.27-.53-.7-2.46-1.41-4.99-2.11-7.45l-.16-.57s-.16-.56-.06-.62c.44-.24,1.51-.47,2.11-.57.11-.02.27.53.27.53.42,1.49.88,3.11,1.3,4.6.43-1.52.9-3.16,1.34-4.68,0,0,.16-.57.28-.56.39-.05,1.8-.03,2.15.11h-.01c.11,0,.26.53.26.53.44,1.53.88,3.13,1.32,4.67.46-1.55.94-3.17,1.39-4.72,0,0,.17-.56.28-.56.47.02,1.42.37,1.94.58.1.04-.06.6-.06.6Z"/>
  <path class="cls-1" d="M39.4,9.87c-.02.11-.51.11-.57.11-.48.01-5.46.02-6.27-.1-.12-.02-.1-.59-.1-.59l.19-8.34s0-.46.09-.51c.15-.08,2.43-.2,3.61-.27l2.4-.09s.52-.03.58.11c.13.72.11,1.46-.05,2.17-.04.12-.43.12-.43.12-1.25.05-2.58.09-3.83.15l-.03,1.36h0c.85.04,1.82.09,2.66.12,0,0,.49.02.55.16.14.31.06,1.4-.04,1.77-.04.14-.38.15-.52.16-.68.02-1.85.08-2.71.12-.01.33-.02.93-.03,1.26h3.92s.56-.01.6.11c.12.72.11,1.46-.03,2.18Z"/>
  <path class="cls-1" d="M48.65,9c-.6.41-1.26.74-1.95.99-.11.03-.37-.48-.37-.48l-.29-.54c-.4-.8-.69-1.23-1.15-2.22-.39.05-.79.07-1.18.05-.02.79-.05,1.71-.07,2.49,0,0-.01.59-.13.61-.73.06-1.46.03-2.18-.09-.11-.02-.1-.59-.1-.59.08-2.78.16-5.6.24-8.38.01-.02-.02-.7.21-.62.17-.04.34-.06.51-.06,1.64.03,3.47-.21,4.85.88,1.64,1.32,1.36,4.31-.56,5.21.28,0,.75.03.75.03,0,0,.61,1.13,1.23,2.09,0,0,.3.54.19.61ZM43.83,2.59c-.01.55-.04,1.26-.05,1.81,0,0,.02,0,.02,0,.62-.03,1.54.04,1.85-.59.35-1.22-.97-1.19-1.83-1.22Z"/>
  <path class="cls-1" d="M56.92,9.87c-.02.11-.51.11-.57.11-.48.01-5.46.02-6.27-.1-.12-.02-.1-.59-.1-.59l.19-8.34s0-.46.09-.51c.15-.08,2.43-.2,3.61-.27l2.4-.09s.52-.03.58.11c.13.72.11,1.46-.05,2.17-.04.12-.43.12-.43.12-1.25.05-2.58.09-3.83.15l-.03,1.36h0c.85.04,1.82.09,2.66.12,0,0,.49.02.55.16.14.31.06,1.4-.04,1.77-.04.14-.38.15-.52.16-.68.02-1.85.08-2.71.12-.01.33-.02.93-.03,1.26h3.92s.56-.01.6.11c.12.72.11,1.46-.03,2.18Z"/>
  <path class="cls-1" d="M61.72,9.98c-.96.05-1.92,0-2.86-.13-.11-.03-.1-.59-.1-.59l.19-8.34s.01-.59.13-.61c.28-.04.56-.07.84-.07,3.48-.12,6.25.22,6.47,4.3.17,3.21-1.12,5.4-4.67,5.44ZM61.32,2.62c-.04,1.6-.07,3.33-.11,4.94,2.24.1,2.73-.05,2.79-2.41.05-2.17-.51-2.69-2.67-2.53Z"/>
  <path class="cls-1" d="M72.3.94s0-.56.14-.59c1.08-.22,2.19-.23,3.27-.03.51.07,1,.21,1.46.44,1.54.68,2.22,2.96.92,4.19.85.62,1.3,1.66,1.16,2.71-.31,2.87-4.86,2.4-6.56,2.13-.21-.03-.42-.08-.62-.16-.1-.05-.09-.57-.09-.57l.32-8.12ZM74.44,7.65c.66.03,3.06.24,2.64-.85-.33-.86-1.86-.84-2.57-.81l-.03.85-.03.81ZM74.59,3.89c.61.05,1.43.15,1.89-.28.11-.15.15-.34.11-.52-.04-.18-.17-.33-.34-.41-.4-.21-1.41-.23-1.6-.23v.31s-.06,1.12-.06,1.12Z"/>
  <path class="cls-1" d="M88.32,2c-.91,1.25-1.69,2.55-2.66,3.76v3.53s.01.63-.11.65c-.73.09-1.46.08-2.18-.03-.24-.21-.12-3.75-.11-4.32-.88-1.22-1.72-2.49-2.59-3.71,0,0-.32-.48-.27-.58.16-.33,1.15-1.13,1.62-1.14.1,0,.44.41.44.41l2.03,2.7c.6-.86,1.25-1.8,1.85-2.66,0,0,.32-.45.44-.43.44.06,1.52.68,1.79,1.22.06.12-.25.59-.25.59Z"/>
</svg>