<?xml version="1.0" encoding="UTF-8"?>
<svg id="NEW" xmlns="http://www.w3.org/2000/svg" viewBox="0 0 102.15 52.53">
  <defs>
    <style>
      .cls-1 {
        fill: #74949e;
      }

      .cls-2 {
        fill: #2e393f;
      }
    </style>
  </defs>
  <rect class="cls-2" x="0" y="0" width="102.15" height="52.53" rx="19.58" ry="19.58"/>
  <g>
    <path class="cls-1" d="M32.14,35.88h-3.57l-5.17-8.19h-2.7v8.19h-3.18v-19.49h7.63c3.15,0,5.62,2.53,5.62,5.72,0,2.63-1.79,4.78-4.22,5.3l5.59,8.48ZM24.76,24.93c1.66,0,2.89-1.14,2.89-2.79s-1.23-2.79-2.89-2.79h-4.06v5.59h4.06Z"/>
    <path class="cls-1" d="M47.21,29.87h-10.66c.16,2.18,1.69,3.7,3.87,3.7,1.66,0,2.96-.88,3.51-2.24h3.09c-.75,2.83-3.25,4.81-6.59,4.81-4.03,0-6.98-2.86-6.98-6.76s2.99-6.76,6.95-6.76,6.79,2.79,6.85,6.69l-.03.55ZM36.81,27.66h7.05c-.55-1.49-1.75-2.44-3.44-2.44s-3.02.97-3.61,2.44Z"/>
    <path class="cls-1" d="M49.22,33.15l2.5-1.14c.39,1.01,1.43,1.46,2.37,1.46s1.62-.45,1.62-1.27c0-.75-.62-1.1-1.98-1.66-1.95-.71-3.87-1.69-3.87-4s1.82-3.93,4.26-3.93c1.75,0,3.41.88,4.09,1.98l-1.95,1.59c-.36-.58-1.1-.97-1.95-.97s-1.4.42-1.4,1.17c0,.81.62,1.07,1.88,1.59,1.75.71,3.83,1.69,3.83,4.16,0,2.34-1.85,4-4.45,4-2.18,0-4.35-1.2-4.97-2.99Z"/>
    <path class="cls-1" d="M74.43,29.87h-10.66c.16,2.18,1.69,3.7,3.87,3.7,1.66,0,2.96-.88,3.51-2.24h3.09c-.75,2.83-3.25,4.81-6.59,4.81-4.03,0-6.98-2.86-6.98-6.76s2.99-6.76,6.95-6.76,6.79,2.79,6.85,6.69l-.03.55ZM64.04,27.66h7.05c-.55-1.49-1.75-2.44-3.44-2.44s-3.02.97-3.61,2.44Z"/>
    <path class="cls-1" d="M81.35,25.48v6.01c0,1.14.75,1.85,1.72,1.85h1.49v2.37c-.32.23-1.14.42-1.88.42-2.37,0-4.42-1.88-4.42-4.29v-6.37h-2.14v-2.6h2.14v-5.33h3.09v5.33h3.28v2.6h-3.28Z"/>
  </g>
</svg>