<?xml version="1.0" encoding="UTF-8"?>
<svg id="NEW" xmlns="http://www.w3.org/2000/svg" viewBox="0 0 196.05 52.53">
  <defs>
    <style>
      .cls-1 {
        fill: #74949e;
      }

      .cls-2 {
        fill: #2e393f;
      }
    </style>
  </defs>
  <path class="cls-2" d="M176.47,0H19.58C8.77,0,0,8.77,0,19.58v13.37c0,10.81,8.77,19.58,19.58,19.58h156.89c10.81,0,19.58-8.77,19.58-19.58v-13.37c0-10.81-8.77-19.58-19.58-19.58Z"/>
  <g>
    <path class="cls-1" d="M26.45,19.34h-5.16v16.53h-3.15v-16.53h-5.16v-2.96h13.48v2.96Z"/>
    <path class="cls-1" d="M39.97,29.87h-10.66c.16,2.18,1.69,3.7,3.87,3.7,1.66,0,2.96-.88,3.51-2.24h3.09c-.75,2.83-3.25,4.81-6.59,4.81-4.03,0-6.98-2.86-6.98-6.76s2.99-6.76,6.95-6.76,6.79,2.79,6.85,6.69l-.03.55ZM29.57,27.66h7.05c-.55-1.49-1.75-2.44-3.44-2.44s-3.02.97-3.61,2.44Z"/>
    <path class="cls-1" d="M43.28,12.75h3.09v23.13h-3.09V12.75Z"/>
    <path class="cls-1" d="M63.51,29.87h-10.66c.16,2.18,1.69,3.7,3.87,3.7,1.66,0,2.96-.88,3.51-2.24h3.09c-.75,2.83-3.25,4.81-6.59,4.81-4.03,0-6.98-2.86-6.98-6.76s2.99-6.76,6.95-6.76,6.79,2.79,6.85,6.69l-.03.55ZM53.12,27.66h7.05c-.55-1.49-1.75-2.44-3.44-2.44s-3.02.97-3.61,2.44Z"/>
    <path class="cls-1" d="M79.98,22.89v13.68c0,4.22-2.92,7.18-7.15,7.18-3.15,0-5.65-1.72-6.63-4.39l2.83-1.17c.52,1.62,1.98,2.73,3.8,2.73,2.34,0,4.06-1.79,4.06-4.26v-2.24c-1.14,1.07-2.66,1.72-4.39,1.72-3.67,0-6.59-2.99-6.59-6.76s2.92-6.76,6.59-6.76c1.69,0,3.22.65,4.35,1.69v-1.43h3.12ZM76.93,29.38c0-2.18-1.75-3.9-3.93-3.9s-3.9,1.72-3.9,3.9,1.72,3.9,3.9,3.9,3.93-1.72,3.93-3.9Z"/>
    <path class="cls-1" d="M92.39,22.72v2.89c-.32-.07-.68-.13-1.1-.13-2.24,0-3.93,1.53-3.93,3.8v6.59h-3.09v-12.99h3.09v1.79c.91-1.27,2.31-2.05,4-2.05.36,0,.71.03,1.04.1Z"/>
    <path class="cls-1" d="M109.44,33.35v2.53c-.29.16-.65.26-1.04.26-1.59,0-2.86-.88-3.51-2.18-1.1,1.33-2.76,2.18-4.65,2.18-3.67,0-6.59-2.99-6.59-6.76s2.92-6.76,6.59-6.76c1.66,0,3.09.62,4.19,1.62v-1.36h3.09v9c0,1.14.58,1.46,1.2,1.46h.71ZM104.54,29.38c0-2.18-1.75-3.9-3.9-3.9s-3.9,1.72-3.9,3.9,1.72,3.9,3.9,3.9,3.9-1.72,3.9-3.9Z"/>
    <path class="cls-1" d="M130.59,27.63v8.25h-3.09v-7.93c0-1.36-1.01-2.47-2.34-2.47s-2.31,1.2-2.31,2.47v7.93h-3.09v-7.93c0-1.36-1.01-2.47-2.34-2.47-1.4,0-2.31,1.2-2.31,2.47v7.93h-3.09v-12.99h3.09v1.33c.81-.97,1.92-1.59,3.22-1.59,1.46,0,2.79.81,3.64,2.05.84-1.27,2.24-2.05,3.93-2.05,2.76,0,4.68,2.14,4.68,5Z"/>
    <path class="cls-1" d="M156.38,30.65c0,3.22-2.47,5.23-5.56,5.23h-8.38v-19.49h7.67c3.12,0,5.62,2.08,5.62,5.3,0,2.08-1.01,3.54-2.6,4.32,1.92.71,3.25,2.27,3.25,4.65ZM149.75,19.34h-4.16v5.39h4.16c1.53,0,2.79-1.2,2.79-2.73s-1.27-2.66-2.79-2.66ZM153.19,30.26c0-1.53-1.27-2.73-2.83-2.73h-4.78v5.39h4.78c1.56,0,2.83-1.14,2.83-2.66Z"/>
    <path class="cls-1" d="M158.84,29.38c0-3.8,2.96-6.76,6.98-6.76s6.98,2.96,6.98,6.76-2.96,6.76-6.98,6.76-6.98-2.96-6.98-6.76ZM169.73,29.38c0-2.18-1.72-3.9-3.9-3.9s-3.9,1.72-3.9,3.9,1.69,3.9,3.9,3.9,3.9-1.72,3.9-3.9Z"/>
    <path class="cls-1" d="M179.8,25.48v6.01c0,1.14.75,1.85,1.72,1.85h1.49v2.37c-.32.23-1.14.42-1.88.42-2.37,0-4.42-1.88-4.42-4.29v-6.37h-2.14v-2.6h2.14v-5.33h3.09v5.33h3.28v2.6h-3.28Z"/>
  </g>
</svg>